# This file uses centimeters as units for non-parametric coordinates.

mtllib libro.mtl
g default
v -0.127476 0.203633 -0.109669
v -0.089442 0.225490 -0.109669
v -0.007262 -0.005557 -0.109669
v 0.030772 0.016300 -0.109669
v 0.003710 0.012614 0.109669
v 0.003244 0.010257 0.109538
v 0.002781 0.007956 0.109149
v 0.002332 0.005770 0.108512
v 0.001907 0.003752 0.107641
v 0.001518 0.001950 0.106559
v 0.001173 0.000409 0.105291
v 0.000882 -0.000835 0.103866
v 0.000650 -0.001752 0.102319
v 0.000483 -0.002321 0.100685
v 0.000386 -0.002529 0.099003
v 0.021957 0.025088 0.109669
v 0.024321 0.024621 0.109534
v 0.026623 0.024158 0.109136
v 0.028806 0.023709 0.108481
v 0.030816 0.023287 0.107587
v 0.032602 0.022902 0.106478
v 0.034121 0.022563 0.105180
v 0.035332 0.022279 0.103728
v 0.036206 0.022057 0.102158
v 0.036720 0.021904 0.100511
v 0.036860 0.021822 0.098832
v -0.118661 0.194845 0.109669
v -0.121025 0.195312 0.109534
v -0.123327 0.195775 0.109136
v -0.125510 0.196224 0.108481
v -0.127520 0.196646 0.107587
v -0.129306 0.197031 0.106478
v -0.130825 0.197370 0.105180
v -0.132036 0.197654 0.103728
v -0.132910 0.197876 0.102158
v -0.133424 0.198029 0.100511
v -0.133564 0.198111 0.098832
v -0.100414 0.207319 0.109669
v -0.099948 0.209677 0.109538
v -0.099485 0.211977 0.109149
v -0.099036 0.214163 0.108512
v -0.098611 0.216181 0.107641
v -0.098222 0.217982 0.106559
v -0.097877 0.219524 0.105291
v -0.097586 0.220768 0.103866
v -0.097354 0.221685 0.102319
v -0.097187 0.222254 0.100685
v -0.097090 0.222462 0.099003
vt 0.375000 0.750000
vt 0.375000 0.500000
vt 0.625000 0.750000
vt 0.625000 0.500000
vt 0.436545 0.011190
vt 0.562506 0.011362
vt 0.437494 0.238638
vt 0.563455 0.238810
vt 0.375000 0.262351
vt 0.625000 0.262157
vt 0.375000 0.987843
vt 0.625000 0.987649
vt 0.637157 0.250000
vt 0.637351 0.000000
vt 0.875000 0.250000
vt 0.875000 0.000000
vt 0.125000 0.250000
vt 0.125000 0.000000
vt 0.362649 0.250000
vt 0.362843 0.000000
vt 0.375000 0.990089
vt 0.625000 0.989922
vt 0.375000 0.992389
vt 0.625000 0.992254
vt 0.375000 0.994788
vt 0.625000 0.994693
vt 0.375000 0.997320
vt 0.625000 0.997270
vt 0.375000 1.000000
vt 0.625000 1.000000
vt 0.375000 0.000000
vt 0.625000 0.000000
vt 0.387080 0.001991
vt 0.612817 0.002040
vt 0.399307 0.004135
vt 0.600466 0.004226
vt 0.411629 0.006400
vt 0.587989 0.006524
vt 0.424067 0.008766
vt 0.575329 0.008915
vt 0.635078 0.000000
vt 0.634911 0.250000
vt 0.632746 0.000000
vt 0.632611 0.250000
vt 0.630307 0.000000
vt 0.630212 0.250000
vt 0.627730 0.000000
vt 0.627680 0.250000
vt 0.625000 0.250000
vt 0.612933 0.248011
vt 0.600695 0.245866
vt 0.588351 0.243597
vt 0.575941 0.241236
vt 0.365089 0.000000
vt 0.364922 0.250000
vt 0.367389 0.000000
vt 0.367254 0.250000
vt 0.369788 0.000000
vt 0.369693 0.250000
vt 0.372320 0.000000
vt 0.372270 0.250000
vt 0.375000 0.250000
vt 0.387171 0.247962
vt 0.399497 0.245781
vt 0.411998 0.243478
vt 0.424670 0.241085
vt 0.375000 0.260078
vt 0.625000 0.259911
vt 0.375000 0.257746
vt 0.625000 0.257611
vt 0.375000 0.255307
vt 0.625000 0.255212
vt 0.375000 0.252730
vt 0.625000 0.252680
vn -0.000000 0.000000 -1.000000
vn -0.000000 0.000000 -1.000000
vn -0.000000 0.000000 -1.000000
vn -0.000000 0.000000 -1.000000
vn -0.000000 0.000000 -1.000000
vn 0.000000 0.000000 -1.000000
vn -0.006126 -0.005217 0.999968
vn 0.007123 0.003813 0.999967
vn -0.007124 -0.003813 0.999967
vn -0.007124 -0.003813 0.999967
vn 0.007123 0.003813 0.999967
vn 0.006125 0.005217 0.999968
vn -0.555262 0.831650 0.006448
vn -0.548045 0.836435 0.004801
vn -0.505755 0.862667 -0.004193
vn -0.505755 0.862667 -0.004193
vn -0.548045 0.836435 0.004801
vn -0.498243 0.867019 -0.005680
vn 0.498243 -0.867019 -0.005680
vn 0.505755 -0.862667 -0.004193
vn 0.548046 -0.836435 0.004802
vn 0.548046 -0.836435 0.004802
vn 0.505755 -0.862667 -0.004193
vn 0.555263 -0.831650 0.006448
vn 0.831065 0.554798 0.039112
vn 0.851309 0.524656 -0.003168
vn 0.848197 0.529669 0.003587
vn 0.848197 0.529669 0.003587
vn 0.851309 0.524656 -0.003168
vn 0.866390 0.497883 -0.038483
vn -0.866390 -0.497883 -0.038483
vn -0.848197 -0.529669 0.003587
vn -0.851309 -0.524656 -0.003168
vn -0.851309 -0.524656 -0.003168
vn -0.848197 -0.529669 0.003587
vn -0.831065 -0.554798 0.039112
vn 0.548046 -0.836435 0.004802
vn 0.555263 -0.831650 0.006448
vn 0.550552 -0.823171 0.138857
vn 0.550552 -0.823171 0.138857
vn 0.555263 -0.831650 0.006448
vn 0.549534 -0.820333 0.158324
vn 0.550552 -0.823171 0.138857
vn 0.549534 -0.820333 0.158324
vn 0.533679 -0.795802 0.286157
vn 0.533679 -0.795802 0.286157
vn 0.549534 -0.820333 0.158324
vn 0.531087 -0.790585 0.304832
vn 0.533679 -0.795802 0.286157
vn 0.531087 -0.790585 0.304832
vn 0.504218 -0.749728 0.428571
vn 0.504218 -0.749728 0.428571
vn 0.531087 -0.790585 0.304832
vn 0.500549 -0.743048 0.444219
vn 0.504218 -0.749728 0.428571
vn 0.500549 -0.743048 0.444219
vn 0.462434 -0.685636 0.562190
vn 0.462434 -0.685636 0.562190
vn 0.500549 -0.743048 0.444219
vn 0.458458 -0.678721 0.573719
vn 0.462434 -0.685636 0.562190
vn 0.458458 -0.678721 0.573719
vn 0.409126 -0.604920 0.683146
vn 0.409126 -0.604920 0.683146
vn 0.458458 -0.678721 0.573719
vn 0.405575 -0.598908 0.690520
vn 0.409126 -0.604920 0.683146
vn 0.405575 -0.598908 0.690520
vn 0.345571 -0.509606 0.787961
vn 0.345571 -0.509606 0.787961
vn 0.405575 -0.598908 0.690520
vn 0.342939 -0.505248 0.791907
vn 0.345571 -0.509606 0.787961
vn 0.342939 -0.505248 0.791907
vn 0.273392 -0.402190 0.873785
vn 0.273392 -0.402190 0.873785
vn 0.342939 -0.505248 0.791907
vn 0.271848 -0.399685 0.875414
vn 0.273392 -0.402190 0.873785
vn 0.271848 -0.399685 0.875414
vn -0.225593 -0.201150 0.953229
vn -0.225593 -0.201150 0.953229
vn 0.271848 -0.399685 0.875414
vn 0.282228 0.142390 0.948721
vn -0.129061 -0.112557 0.985228
vn 0.158239 0.082243 0.983970
vn -0.006126 -0.005217 0.999968
vn -0.006126 -0.005217 0.999968
vn 0.158239 0.082243 0.983970
vn 0.007123 0.003813 0.999967
vn -0.225593 -0.201150 0.953229
vn 0.282228 0.142390 0.948721
vn -0.129061 -0.112557 0.985228
vn -0.129061 -0.112557 0.985228
vn 0.282228 0.142390 0.948721
vn 0.158239 0.082243 0.983970
vn 0.825876 0.552140 0.114325
vn 0.851309 0.524656 -0.003168
vn 0.817274 0.545737 0.185026
vn 0.817274 0.545737 0.185026
vn 0.851309 0.524656 -0.003168
vn 0.831065 0.554798 0.039112
vn 0.801284 0.536083 0.265629
vn 0.825876 0.552140 0.114325
vn 0.785549 0.524970 0.327596
vn 0.785549 0.524970 0.327596
vn 0.825876 0.552140 0.114325
vn 0.817274 0.545737 0.185026
vn 0.757345 0.507026 0.411525
vn 0.801284 0.536083 0.265629
vn 0.736554 0.492589 0.463513
vn 0.736554 0.492589 0.463513
vn 0.801284 0.536083 0.265629
vn 0.785549 0.524970 0.327596
vn 0.694677 0.465363 0.548508
vn 0.757345 0.507026 0.411525
vn 0.671219 0.449208 0.589641
vn 0.671219 0.449208 0.589641
vn 0.757345 0.507026 0.411525
vn 0.736554 0.492589 0.463513
vn 0.614444 0.411862 0.672925
vn 0.694677 0.465363 0.548508
vn 0.590922 0.395735 0.702997
vn 0.590922 0.395735 0.702997
vn 0.694677 0.465363 0.548508
vn 0.671219 0.449208 0.589641
vn 0.518478 0.347730 0.781195
vn 0.614444 0.411862 0.672925
vn 0.497433 0.333329 0.800907
vn 0.497433 0.333329 0.800907
vn 0.614444 0.411862 0.672925
vn 0.590922 0.395735 0.702997
vn 0.409213 0.274577 0.870145
vn 0.518478 0.347730 0.781195
vn 0.392700 0.263302 0.881169
vn 0.392700 0.263302 0.881169
vn 0.518478 0.347730 0.781195
vn 0.497433 0.333329 0.800907
vn 0.282228 0.142390 0.948721
vn 0.409213 0.274577 0.870145
vn 0.225595 0.201154 0.953228
vn 0.225595 0.201154 0.953228
vn 0.409213 0.274577 0.870145
vn 0.392700 0.263302 0.881169
vn 0.007123 0.003813 0.999967
vn 0.158239 0.082243 0.983970
vn 0.006125 0.005217 0.999968
vn 0.006125 0.005217 0.999968
vn 0.158239 0.082243 0.983970
vn 0.129062 0.112557 0.985228
vn 0.158239 0.082243 0.983970
vn 0.282228 0.142390 0.948721
vn 0.129062 0.112557 0.985228
vn 0.129062 0.112557 0.985228
vn 0.282228 0.142390 0.948721
vn 0.225595 0.201154 0.953228
vn -0.831065 -0.554798 0.039112
vn -0.817274 -0.545737 0.185027
vn -0.851309 -0.524656 -0.003168
vn -0.851309 -0.524656 -0.003168
vn -0.817274 -0.545737 0.185027
vn -0.825877 -0.552138 0.114331
vn -0.817274 -0.545737 0.185027
vn -0.785550 -0.524971 0.327592
vn -0.825877 -0.552138 0.114331
vn -0.825877 -0.552138 0.114331
vn -0.785550 -0.524971 0.327592
vn -0.801284 -0.536081 0.265633
vn -0.785550 -0.524971 0.327592
vn -0.736557 -0.492589 0.463508
vn -0.801284 -0.536081 0.265633
vn -0.801284 -0.536081 0.265633
vn -0.736557 -0.492589 0.463508
vn -0.757345 -0.507025 0.411527
vn -0.736557 -0.492589 0.463508
vn -0.671219 -0.449208 0.589642
vn -0.757345 -0.507025 0.411527
vn -0.757345 -0.507025 0.411527
vn -0.671219 -0.449208 0.589642
vn -0.694674 -0.465361 0.548513
vn -0.671219 -0.449208 0.589642
vn -0.590922 -0.395736 0.702997
vn -0.694674 -0.465361 0.548513
vn -0.694674 -0.465361 0.548513
vn -0.590922 -0.395736 0.702997
vn -0.614446 -0.411865 0.672921
vn -0.590922 -0.395736 0.702997
vn -0.497429 -0.333327 0.800911
vn -0.614446 -0.411865 0.672921
vn -0.614446 -0.411865 0.672921
vn -0.497429 -0.333327 0.800911
vn -0.518479 -0.347730 0.781194
vn -0.497429 -0.333327 0.800911
vn -0.392704 -0.263301 0.881167
vn -0.518479 -0.347730 0.781194
vn -0.518479 -0.347730 0.781194
vn -0.392704 -0.263301 0.881167
vn -0.409207 -0.274579 0.870147
vn -0.392704 -0.263301 0.881167
vn -0.225593 -0.201150 0.953229
vn -0.409207 -0.274579 0.870147
vn -0.409207 -0.274579 0.870147
vn -0.225593 -0.201150 0.953229
vn -0.282226 -0.142391 0.948722
vn -0.225593 -0.201150 0.953229
vn -0.129061 -0.112557 0.985228
vn -0.282226 -0.142391 0.948722
vn -0.282226 -0.142391 0.948722
vn -0.129061 -0.112557 0.985228
vn -0.158239 -0.082242 0.983970
vn -0.129061 -0.112557 0.985228
vn -0.006126 -0.005217 0.999968
vn -0.158239 -0.082242 0.983970
vn -0.158239 -0.082242 0.983970
vn -0.006126 -0.005217 0.999968
vn -0.007124 -0.003813 0.999967
vn -0.549532 0.820331 0.158338
vn -0.550556 0.823172 0.138840
vn -0.555262 0.831650 0.006448
vn -0.555262 0.831650 0.006448
vn -0.550556 0.823172 0.138840
vn -0.548045 0.836435 0.004801
vn -0.531084 0.790584 0.304838
vn -0.533683 0.795803 0.286147
vn -0.549532 0.820331 0.158338
vn -0.549532 0.820331 0.158338
vn -0.533683 0.795803 0.286147
vn -0.550556 0.823172 0.138840
vn -0.500551 0.743049 0.444215
vn -0.504216 0.749732 0.428565
vn -0.531084 0.790584 0.304838
vn -0.531084 0.790584 0.304838
vn -0.504216 0.749732 0.428565
vn -0.533683 0.795803 0.286147
vn -0.458457 0.678725 0.573716
vn -0.462432 0.685635 0.562194
vn -0.500551 0.743049 0.444215
vn -0.500551 0.743049 0.444215
vn -0.462432 0.685635 0.562194
vn -0.504216 0.749732 0.428565
vn -0.405572 0.598912 0.690518
vn -0.409127 0.604912 0.683152
vn -0.458457 0.678725 0.573716
vn -0.458457 0.678725 0.573716
vn -0.409127 0.604912 0.683152
vn -0.462432 0.685635 0.562194
vn -0.342938 0.505249 0.791907
vn -0.345574 0.509603 0.787962
vn -0.405572 0.598912 0.690518
vn -0.405572 0.598912 0.690518
vn -0.345574 0.509603 0.787962
vn -0.409127 0.604912 0.683152
vn -0.271852 0.399682 0.875415
vn -0.273392 0.402191 0.873785
vn -0.342938 0.505249 0.791907
vn -0.342938 0.505249 0.791907
vn -0.273392 0.402191 0.873785
vn -0.345574 0.509603 0.787962
vn -0.282226 -0.142391 0.948722
vn 0.225595 0.201154 0.953228
vn -0.271852 0.399682 0.875415
vn -0.271852 0.399682 0.875415
vn 0.225595 0.201154 0.953228
vn -0.273392 0.402191 0.873785
vn -0.158239 -0.082242 0.983970
vn 0.129062 0.112557 0.985228
vn -0.282226 -0.142391 0.948722
vn -0.282226 -0.142391 0.948722
vn 0.129062 0.112557 0.985228
vn 0.225595 0.201154 0.953228
vn -0.007124 -0.003813 0.999967
vn 0.006125 0.005217 0.999968
vn -0.158239 -0.082242 0.983970
vn -0.158239 -0.082242 0.983970
vn 0.006125 0.005217 0.999968
vn 0.129062 0.112557 0.985228
s off
g libro:pCube13
usemtl libro:lambert5SG
f 3/1/1 1/2/2 4/3/3
f 4/3/4 1/2/5 2/4/6
f 5/5/7 16/6/8 27/7/9
f 27/7/10 16/6/11 38/8/12
f 37/9/13 48/10/14 1/2/15
f 1/2/16 48/10/17 2/4/18
f 3/1/19 4/3/20 15/11/21
f 15/11/22 4/3/23 26/12/24
f 48/13/25 26/14/26 2/15/27
f 2/15/28 26/14/29 4/16/30
f 1/17/31 3/18/32 37/19/33
f 37/19/34 3/18/35 15/20/36
f 15/11/37 26/12/38 14/21/39
f 14/21/40 26/12/41 25/22/42
f 14/21/43 25/22/44 13/23/45
f 13/23/46 25/22/47 24/24/48
f 13/23/49 24/24/50 12/25/51
f 12/25/52 24/24/53 23/26/54
f 12/25/55 23/26/56 11/27/57
f 11/27/58 23/26/59 22/28/60
f 11/27/61 22/28/62 10/29/63
f 10/29/64 22/28/65 21/30/66
f 10/31/67 21/32/68 9/33/69
f 9/33/70 21/32/71 20/34/72
f 9/33/73 20/34/74 8/35/75
f 8/35/76 20/34/77 19/36/78
f 8/35/79 19/36/80 7/37/81
f 7/37/82 19/36/83 18/38/84
f 6/39/85 17/40/86 5/5/87
f 5/5/88 17/40/89 16/6/90
f 7/37/91 18/38/92 6/39/93
f 6/39/94 18/38/95 17/40/96
f 25/41/97 26/14/98 47/42/99
f 47/42/100 26/14/101 48/13/102
f 24/43/103 25/41/104 46/44/105
f 46/44/106 25/41/107 47/42/108
f 23/45/109 24/43/110 45/46/111
f 45/46/112 24/43/113 46/44/114
f 22/47/115 23/45/116 44/48/117
f 44/48/118 23/45/119 45/46/120
f 21/32/121 22/47/122 43/49/123
f 43/49/124 22/47/125 44/48/126
f 20/34/127 21/32/128 42/50/129
f 42/50/130 21/32/131 43/49/132
f 19/36/133 20/34/134 41/51/135
f 41/51/136 20/34/137 42/50/138
f 18/38/139 19/36/140 40/52/141
f 40/52/142 19/36/143 41/51/144
f 16/6/145 17/40/146 38/8/147
f 38/8/148 17/40/149 39/53/150
f 17/40/151 18/38/152 39/53/153
f 39/53/154 18/38/155 40/52/156
f 15/20/157 14/54/158 37/19/159
f 37/19/160 14/54/161 36/55/162
f 14/54/163 13/56/164 36/55/165
f 36/55/166 13/56/167 35/57/168
f 13/56/169 12/58/170 35/57/171
f 35/57/172 12/58/173 34/59/174
f 12/58/175 11/60/176 34/59/177
f 34/59/178 11/60/179 33/61/180
f 11/60/181 10/31/182 33/61/183
f 33/61/184 10/31/185 32/62/186
f 10/31/187 9/33/188 32/62/189
f 32/62/190 9/33/191 31/63/192
f 9/33/193 8/35/194 31/63/195
f 31/63/196 8/35/197 30/64/198
f 8/35/199 7/37/200 30/64/201
f 30/64/202 7/37/203 29/65/204
f 7/37/205 6/39/206 29/65/207
f 29/65/208 6/39/209 28/66/210
f 6/39/211 5/5/212 28/66/213
f 28/66/214 5/5/215 27/7/216
f 36/67/217 47/68/218 37/9/219
f 37/9/220 47/68/221 48/10/222
f 35/69/223 46/70/224 36/67/225
f 36/67/226 46/70/227 47/68/228
f 34/71/229 45/72/230 35/69/231
f 35/69/232 45/72/233 46/70/234
f 33/73/235 44/74/236 34/71/237
f 34/71/238 44/74/239 45/72/240
f 32/62/241 43/49/242 33/73/243
f 33/73/244 43/49/245 44/74/246
f 31/63/247 42/50/248 32/62/249
f 32/62/250 42/50/251 43/49/252
f 30/64/253 41/51/254 31/63/255
f 31/63/256 41/51/257 42/50/258
f 29/65/259 40/52/260 30/64/261
f 30/64/262 40/52/263 41/51/264
f 28/66/265 39/53/266 29/65/267
f 29/65/268 39/53/269 40/52/270
f 27/7/271 38/8/272 28/66/273
f 28/66/274 38/8/275 39/53/276
